<?xml version="1.0" standalone="no"?>
<!DOCTYPE svg PUBLIC "-//W3C//DTD SVG 20010904//EN"
 "http://www.w3.org/TR/2001/REC-SVG-20010904/DTD/svg10.dtd">
<svg version="1.0" xmlns="http://www.w3.org/2000/svg"
 width="512.000000pt" height="512.000000pt" viewBox="0 0 512.000000 512.000000"
 preserveAspectRatio="xMidYMid meet">
<metadata>
Created by potrace 1.14, written by Peter Selinger 2001-2017
</metadata>
<g transform="translate(0.000000,512.000000) scale(0.100000,-0.100000)"
fill="#000000" stroke="none">
<path d="M1168 5115 c-2 -2 -20 -5 -39 -6 -18 -2 -41 -6 -49 -10 -8 -4 -31 -9
-50 -12 -65 -9 -194 -57 -273 -99 -76 -42 -215 -146 -216 -161 -1 -4 -14 -20
-29 -35 -39 -39 -103 -134 -144 -217 -32 -63 -62 -142 -61 -155 1 -3 -4 -14
-10 -25 -6 -11 -17 -47 -24 -80 -7 -33 -16 -69 -18 -80 -17 -70 -17 -75 -30
-202 l-7 -72 88 2 88 2 18 78 c10 42 25 91 33 107 8 16 15 32 14 35 0 4 15 34
35 68 79 135 213 237 381 291 297 94 653 15 872 -193 80 -76 119 -132 199
-291 114 -223 195 -440 238 -637 l23 -108 -73 -108 c-41 -59 -74 -112 -74
-116 0 -5 -4 -11 -8 -13 -4 -1 -46 -59 -93 -128 -46 -69 -88 -129 -92 -135 -8
-10 -85 -123 -347 -508 -79 -116 -147 -214 -150 -217 -3 -3 -9 -13 -15 -22
-19 -32 -128 -193 -135 -198 -3 -3 -21 -30 -40 -60 -19 -30 -39 -59 -43 -65
-5 -5 -57 -82 -117 -170 -59 -88 -115 -168 -124 -177 -9 -10 -16 -21 -16 -24
0 -4 -20 -34 -43 -68 -24 -33 -84 -119 -132 -191 -49 -71 -119 -174 -157 -228
-37 -54 -68 -100 -68 -103 0 -3 -5 -10 -11 -17 -5 -7 -53 -75 -106 -152 -53
-77 -132 -193 -177 -258 -44 -65 -85 -126 -91 -135 -5 -9 -27 -40 -48 -70 -22
-29 -36 -56 -33 -60 5 -5 584 -13 831 -11 33 0 81 0 107 0 l47 1 40 66 c34 55
295 460 574 887 28 44 55 82 59 83 5 2 8 8 8 13 0 7 104 174 127 204 5 6 44
66 88 135 43 69 83 126 87 128 4 2 8 8 8 13 0 5 56 93 124 197 68 104 129 199
136 212 7 13 17 29 22 34 10 12 58 85 162 249 38 59 72 110 77 113 9 5 25 -28
33 -69 3 -12 16 -51 30 -86 14 -36 26 -68 26 -72 0 -4 5 -20 12 -36 6 -15 12
-32 14 -38 1 -5 26 -75 54 -155 56 -157 108 -305 135 -385 9 -27 20 -59 25
-70 11 -26 50 -136 55 -155 2 -8 27 -80 55 -160 28 -80 67 -192 86 -250 19
-58 39 -114 44 -125 5 -11 23 -54 41 -95 79 -186 164 -315 291 -442 72 -72
186 -156 240 -177 13 -5 44 -18 68 -30 25 -11 54 -22 65 -24 11 -2 27 -7 35
-10 8 -4 56 -13 105 -21 85 -14 313 -16 375 -3 14 3 43 9 65 12 45 7 43 7 105
24 117 32 234 88 310 149 67 54 136 129 166 181 15 25 30 48 34 51 25 18 104
264 116 360 2 19 7 53 10 75 4 22 8 80 9 128 l3 89 -71 -7 c-40 -4 -80 -8 -90
-9 -26 -3 -33 -15 -46 -81 -18 -89 -73 -193 -140 -263 -32 -34 -64 -62 -70
-62 -6 0 -11 -4 -11 -8 0 -15 -143 -80 -225 -103 -183 -50 -464 -13 -620 83
-16 10 -41 23 -55 30 -14 7 -27 15 -30 18 -3 3 -22 18 -42 33 -43 32 -158 147
-158 158 0 4 -6 14 -13 21 -29 31 -94 147 -102 182 -1 6 -5 18 -8 26 -3 8 -21
62 -41 120 -34 102 -172 503 -222 645 -13 39 -26 77 -29 85 -7 24 -55 164 -62
180 -3 8 -7 20 -9 25 -2 10 -27 80 -109 310 -26 72 -49 139 -52 150 -2 11 -9
29 -14 40 -5 11 -26 70 -48 130 -48 136 -179 495 -188 515 -3 8 -7 17 -7 20
-1 5 -41 109 -56 145 -5 11 -29 76 -55 145 -25 69 -53 140 -61 158 -8 19 -31
75 -50 125 -20 51 -43 108 -51 127 -8 19 -19 44 -23 55 -18 43 -124 293 -143
335 -131 292 -188 375 -349 505 -90 73 -289 156 -428 179 -19 3 -46 8 -60 12
-32 7 -206 15 -212 9z"/>
</g>
</svg>
